<svg id="Layer_1" enable-background="new 0 0 512 512" height="512" viewBox="0 0 512 512" width="512" xmlns="http://www.w3.org/2000/svg"><g><path d="m410.122 142.498c-14.189-44.453-63.08-112.498-154.003-112.498-91.186 0-139.91 68.349-154.003 112.498-2.521 7.892-10.963 12.242-18.852 9.729-7.892-2.52-12.247-10.96-9.729-18.852 16.97-53.152 75.104-133.375 182.584-133.375 108.076 0 165.841 80.927 182.583 133.375 2.519 7.893-1.837 16.332-9.729 18.852-8.15 2.597-16.413-2.094-18.851-9.729z" fill="#013772"/><path d="m410.122 142.498c-14.189-44.453-63.08-112.498-154.003-112.498v-30c108.076 0 165.841 80.927 182.583 133.375 2.519 7.893-1.837 16.332-9.729 18.852-8.15 2.597-16.413-2.094-18.851-9.729z" fill="#010043"/><path d="m166.218 270.831h-54.598c-25.977 0-47.11-21.134-47.11-47.11v-64.222c0-25.978 21.134-47.111 47.11-47.111h54.598c5.589 0 10.714 3.107 13.299 8.062s2.201 10.937-.997 15.521c-11.428 16.379-17.468 35.619-17.468 55.639s6.04 39.26 17.468 55.639c3.198 4.584 3.582 10.565.997 15.521s-7.71 8.061-13.299 8.061z" fill="#016ea1"/><path d="m400.618 270.831h-54.597c-5.589 0-10.715-3.107-13.299-8.062-2.585-4.955-2.201-10.937.997-15.521 11.428-16.379 17.468-35.619 17.468-55.639s-6.04-39.26-17.468-55.639c-3.198-4.584-3.582-10.565-.997-15.521 2.584-4.955 7.71-8.062 13.299-8.062h54.597c25.978 0 47.111 21.134 47.111 47.111v64.222c.001 25.977-21.133 47.111-47.111 47.111z" fill="#013772"/><ellipse cx="256.12" cy="191.61" fill="#ffdcd7" rx="119.888" ry="119.888" transform="matrix(.707 -.707 .707 .707 -60.473 237.225)"/><path d="m256.119 71.722c66.107 0 119.889 53.781 119.889 119.888s-53.782 119.889-119.889 119.889z" fill="#ffb9bc"/><path d="m93.751 512c-22.243 0-38.934-20.435-34.413-42.276.012-.059.025-.118.038-.176 18.207-82.427 92.838-158.05 196.731-158.05 108.236 0 179.512 80.177 196.53 158.133.011.049.02.097.031.146 4.483 21.682-12.063 42.006-34.204 42.006-67.941.217-254.487.217-324.713.217z" fill="#00dcff"/><path d="m371.339 254.776h-83.108c-8.284 0-15-6.716-15-15s6.716-15 15-15h83.108c8.284 0 15 6.716 15 15s-6.716 15-15 15z" fill="#010043"/><path d="m452.637 469.631c-17.017-77.953-88.289-158.127-196.518-158.133v200.475c64.191-.027 128.224-.081 162.345-.19 22.14 0 38.687-20.323 34.204-42.006-.011-.048-.02-.096-.031-.146z" fill="#00a8ff"/></g></svg>