<svg id="Capa_1" enable-background="new 0 0 511.94 511.94" height="512" viewBox="0 0 511.94 511.94" width="512" xmlns="http://www.w3.org/2000/svg"><g><g><path d="m341.008 342c0 92.78-75.22 168-168 168-.64 0-1.27 0-1.91-.02-7.43-.07-14.76-.64-21.93-1.66-13.55-1.92-26.58-5.47-38.89-10.43l-89.27 13.76c-.97.2-1.94.29-2.91.29-3.94 0-7.78-1.56-10.62-4.41-3.54-3.54-5.07-8.62-4.09-13.53l13.15-90.7c-5.21-13.3-8.78-27.42-10.44-42.12-.72-6.29-1.09-12.69-1.09-19.18 0-92.14 74.19-166.96 166.09-167.99.63-.01 1.27-.01 1.91-.01 92.78 0 168 75.22 168 168z" fill="#bcfbff"/><path d="m341.008 342c0 92.78-75.22 168-168 168-.64 0-1.27 0-1.91-.02v-335.97c.63-.01 1.27-.01 1.91-.01 92.78 0 168 75.22 168 168z" fill="#acceff"/><path d="m227.098 374c0 8.28-6.72 15-15 15h-82c-8.28 0-15-6.72-15-15s6.72-15 15-15h82c8.28 0 15 6.72 15 15z" fill="#0a789b"/><path d="m227.098 374c0 8.28-6.72 15-15 15h-41v-30h41c8.28 0 15 6.72 15 15z" fill="#08475e"/><path d="m227.098 312c0 8.28-6.72 15-15 15h-82c-8.28 0-15-6.72-15-15s6.72-15 15-15h82c8.28 0 15 6.72 15 15z" fill="#0a789b"/><path d="m212.098 327h-41v-30h41c8.28 0 15 6.72 15 15s-6.72 15-15 15z" fill="#08475e"/><path d="m504.462 333.53c-2.84 2.85-6.68 4.41-10.62 4.41-.97 0-1.94-.09-2.91-.29l-89.27-13.76c-12.31 4.96-25.34 8.51-38.89 10.43-7.17 1.02-14.5 1.59-21.93 1.66-.64.02-1.27.02-1.91.02-92.78 0-168-75.22-168-168s75.22-168 168-168c.64 0 1.28 0 1.91.01 91.9 1.03 166.09 75.85 166.09 167.99 0 6.49-.37 12.89-1.09 19.18-1.66 14.7-5.23 28.82-10.44 42.12l13.15 90.7c.98 4.91-.55 9.99-4.09 13.53z" fill="#ffdd54"/><path d="m504.462 333.53c-2.84 2.85-6.68 4.41-10.62 4.41-.97 0-1.94-.09-2.91-.29l-89.27-13.76c-12.31 4.96-25.34 8.51-38.89 10.43-7.17 1.02-14.5 1.59-21.93 1.66v-335.97c91.9 1.03 166.09 75.85 166.09 167.99 0 6.49-.37 12.89-1.09 19.18-1.66 14.7-5.23 28.82-10.44 42.12l13.15 90.7c.98 4.91-.55 9.99-4.09 13.53z" fill="#ffb454"/><path d="m374.75 160.15c-5.26 5.56-11.79 9.7-18.91 12.14v19.71c0 8.28-6.72 15-15 15-8.29 0-15-6.72-15-15v-32.18c0-8.27 6.69-14.98 14.95-15h.05c4.61-.02 8.92-1.9 12.12-5.29 3.23-3.41 4.87-7.87 4.63-12.57-.46-8.77-7.71-15.78-16.51-15.96h-.24c-8.45-.07-15.67 6.14-16.83 14.51-.11.78-.17 1.57-.17 2.37 0 8.29-6.71 15-15 15-8.28 0-15-6.71-15-15 0-2.18.15-4.38.45-6.52 3.24-23.2 23.15-40.38 46.55-40.37.28 0 .56 0 .85.01 24.45.5 44.59 20 45.86 44.41.67 12.97-3.87 25.31-12.8 34.74z" fill="#0a789b"/><path d="m374.75 160.15c-5.26 5.56-11.79 9.7-18.91 12.14v19.71c0 8.28-6.72 15-15 15v-62.18c4.61-.02 8.92-1.9 12.12-5.29 3.23-3.41 4.87-7.87 4.63-12.57-.46-8.77-7.71-15.78-16.51-15.96h-.24v-30.01c.28 0 .56 0 .85.01 24.45.5 44.59 20 45.86 44.41.67 12.97-3.87 25.31-12.8 34.74z" fill="#08475e"/></g><circle cx="340.84" cy="240" fill="#0a789b" r="15"/><path d="m340.84 225v30c8.284 0 15-6.716 15-15s-6.716-15-15-15z" fill="#08475e"/></g></svg>